<?xml version="1.0" encoding="UTF-8" standalone="no"?>
<!-- Created with Inkscape (http://www.inkscape.org/) -->

<svg
   xmlns:dc="http://purl.org/dc/elements/1.1/"
   xmlns:cc="http://creativecommons.org/ns#"
   xmlns:rdf="http://www.w3.org/1999/02/22-rdf-syntax-ns#"
   xmlns:svg="http://www.w3.org/2000/svg"
   xmlns="http://www.w3.org/2000/svg"
   xmlns:sodipodi="http://sodipodi.sourceforge.net/DTD/sodipodi-0.dtd"
   xmlns:inkscape="http://www.inkscape.org/namespaces/inkscape"
   id="svg2"
   version="1.1"
   inkscape:version="0.48.3.1 r9886"
   width="370"
   height="75"
   xml:space="preserve"
   sodipodi:docname="epp-invert.svg"><metadata
     id="metadata8"><rdf:RDF><cc:Work
         rdf:about=""><dc:format>image/svg+xml</dc:format><dc:type
           rdf:resource="http://purl.org/dc/dcmitype/StillImage" /><dc:title /></cc:Work></rdf:RDF></metadata><defs
     id="defs6"><clipPath
       clipPathUnits="userSpaceOnUse"
       id="clipPath18"><path
         d="m 0,92.01 296,0 L 296,0 0,0 0,92.01 z"
         id="path20"
         inkscape:connector-curvature="0" /></clipPath></defs><sodipodi:namedview
     pagecolor="#ffffff"
     bordercolor="#666666"
     borderopacity="1"
     objecttolerance="10"
     gridtolerance="10"
     guidetolerance="10"
     inkscape:pageopacity="0"
     inkscape:pageshadow="2"
     inkscape:window-width="1615"
     inkscape:window-height="1026"
     id="namedview4"
     showgrid="false"
     inkscape:zoom="1.9567568"
     inkscape:cx="276.6529"
     inkscape:cy="-109.09378"
     inkscape:window-x="65"
     inkscape:window-y="24"
     inkscape:window-maximized="1"
     inkscape:current-layer="g3245" /><g
     id="g10"
     inkscape:groupmode="layer"
     inkscape:label="erp++ Logo"
     transform="matrix(1.25,0,0,-1.25,0,74.999997)"><g
       id="g3245"
       transform="matrix(1.1778478,0,0,1.175226,-29.426511,-24.369841)"><g
         id="g14"
         style="fill:#ffffff"><g
           clip-path="url(#clipPath18)"
           id="g16"
           style="fill:#ffffff"><g
             transform="translate(108.2754,35.0723)"
             id="g22"
             style="fill:#ffffff"><path
               id="path24"
               style="fill:#ffffff;fill-opacity:1;fill-rule:nonzero;stroke:none"
               d="m 0,0 c 2.674,1.485 4.839,3.751 6.5,6.795 1.657,3.047 2.488,6.276 2.488,9.693 0,3.911 -0.843,7.281 -2.526,10.103 -1.684,2.823 -3.838,5 -6.462,6.536 L 0,0 z m 19.015,2.154 16.119,-16.49 -26.369,0 L 0,-4.011 l 0,-10.325 -22.506,0 0,51.028 27.333,0 c 8.716,0 15.488,-1.325 20.315,-3.974 4.829,-2.649 7.243,-7.316 7.243,-14.001 0,-3.516 -1.201,-6.81 -3.603,-9.878 -2.403,-3.07 -5.657,-5.3 -9.767,-6.685"
               inkscape:connector-curvature="0" /></g><g
             transform="translate(168.1426,34.7754)"
             id="g26"
             style="fill:#ffffff"><path
               id="path28"
               style="fill:#ffffff;fill-opacity:1;fill-rule:nonzero;stroke:none"
               d="m 0,0 c 2.525,1.782 4.542,4.121 6.053,7.019 1.511,2.896 2.265,6.052 2.265,9.469 0,3.466 -0.693,6.723 -2.079,9.769 C 4.853,29.302 2.772,31.69 0,33.424 L 0,0 z m 4.011,36.989 c 8.468,0 14.744,-1.164 18.829,-3.491 4.085,-2.327 6.611,-4.89 7.575,-7.686 0.967,-2.8 1.449,-5.609 1.449,-8.433 0,-5.198 -2.129,-9.978 -6.387,-14.334 C 21.219,-1.313 14.532,-3.492 5.422,-3.492 l -3.788,0 -1.634,0.223 0,-10.77 -22.506,0 0,51.028 26.517,0 z"
               inkscape:connector-curvature="0" /></g><g
             transform="translate(236.625,52.0059)"
             id="g30"
             style="fill:#ffffff"><path
               id="path32"
               style="fill:#ffffff;fill-opacity:1;fill-rule:nonzero;stroke:none"
               d="m 0,0 0,-15.82 -8.766,0 0,-9.135 -15.597,0 0,9.135 -8.84,0 0,15.82 8.84,0 0,9.063 15.597,0 L -8.766,0 0,0 z"
               inkscape:connector-curvature="0" /></g><g
             transform="translate(276.2891,52.0059)"
             id="g34"
             style="fill:#ffffff"><path
               id="path36"
               style="fill:#ffffff;fill-opacity:1;fill-rule:nonzero;stroke:none"
               d="m 0,0 0,-15.82 -8.764,0 0,-9.135 -15.598,0 0,9.135 -8.841,0 0,15.82 8.841,0 0,9.063 15.598,0 L -8.764,0 0,0 z"
               inkscape:connector-curvature="0" /></g></g></g><path
         inkscape:connector-curvature="0"
         id="path104"
         d="m 24.983288,71.790309 0,-10.20402 51.011099,0 0,10.20402 -51.011099,0 z m 0,-20.408041 0,-10.204018 51.011099,0 0,10.204018 -51.011099,0 z m 0,-20.399039 0,-10.204021 51.011099,0 0,10.204021 -51.011099,0 z"
         style="fill:#ee3338;fill-opacity:1;fill-rule:nonzero;stroke:none" /></g></g></svg>