<?xml version="1.0" encoding="utf-8"?>
<!-- Generator: Adobe Illustrator 16.0.0, SVG Export Plug-In . SVG Version: 6.00 Build 0)  -->
<!DOCTYPE svg PUBLIC "-//W3C//DTD SVG 1.1//EN" "http://www.w3.org/Graphics/SVG/1.1/DTD/svg11.dtd">
<svg version="1.1" id="Layer_1" xmlns="http://www.w3.org/2000/svg" xmlns:xlink="http://www.w3.org/1999/xlink" x="0px" y="0px"
	 width="311.812px" height="237.421px" viewBox="0 0 311.812 237.421" enable-background="new 0 0 311.812 237.421"
	 xml:space="preserve">
<g>
	<g>
		<rect x="170.078" fill="#ED1C24" width="28.347" height="141.733"/>
		<g>
			<rect x="0.007" y="113.386" fill="#ED1C24" width="141.732" height="28.347"/>
			<rect y="56.693" fill="#ED1C24" width="141.731" height="28.346"/>
			<rect fill="#ED1C24" width="141.731" height="28.346"/>
		</g>
		<polygon fill="#ED1C24" points="311.812,0 283.465,0 255.118,0 226.772,0 226.772,28.347 255.118,28.347 255.118,141.732 
			283.465,141.732 283.465,28.347 311.812,28.347 		"/>
	</g>
	<g>
		<g>
			<path fill="#231F20" d="M22.806,187.083H6.822c-1.963-0.418-2.928-1.929-2.894-4.532v-6.1H0.007v8.191
				c0.417,4.148,3.119,6.066,8.104,5.752h18.772v-13.943h-4.078V187.083z"/>
			<rect x="14.665" y="170.177" fill="#231F20" width="3.661" height="3.659"/>
			<rect x="9.436" y="170.177" fill="#231F20" width="3.661" height="3.659"/>
			<path fill="#231F20" d="M36.07,182.465v4.618h-0.907h-0.384h-1.847v-17.604h-4.079v17.604v3.312h5.926h0.384h0.907v3.313h3.398
				c4.811,0.197,7.151-2.092,7.024-6.867v-10.389h-3.851C38.388,176.556,36.197,178.56,36.07,182.465z M42.345,188.704
				c0.056,0.931-0.372,1.418-1.291,1.465h-0.888v-8.785c0.081-0.86,0.522-1.319,1.324-1.378h0.854V188.704z"/>
			<path fill="#231F20" d="M99.444,187.083h-1.812h-0.419h-0.871c0-0.081,0-0.162,0-0.243v-10.389h-3.854
				c-4.252,0.104-6.443,2.108-6.569,6.014v4.618h-0.785H84.63h-3.435c0.488-0.545,1.014-1.538,1.578-2.979
				c0.563-1.441,0.839-2.975,0.827-4.602c-0.465-1.65-1.464-2.696-2.997-3.137l-7.792-0.229l-1.988,4.725
				c2.429,1.883,3.777,3.956,4.044,6.222h-4.897h-0.489h-2.213v-17.604H63.19v17.604h-2.005h-0.749H59.53v-10.632h-1.378
				c-5.368,0.047-8.496,1.449-9.385,4.209c-0.889,2.76-0.669,5.11,0.662,7.051c1.331,1.941,3.425,2.835,6.284,2.684
				c0.244,1.035-0.157,1.598-1.204,1.691h-5.595v3.538h5.108c2.01,0.104,3.533-0.431,4.566-1.604
				c0.662-0.929,0.976-2.138,0.941-3.625h0.906h0.749h8.297h0.489h6.275c0.29,0,0.679-0.325,1.167-0.976
				c0.476,0.65,0.866,0.976,1.167,0.976h6.05h0.505h0.785v3.313h3.397c3.393,0.14,5.555-0.965,6.484-3.313h1.412h0.419h5.891v-3.312
				v-17.604h-4.079V187.083z M55.713,187.083c-1.882,0.222-3.144-0.639-3.782-2.579c-0.477-2.951,0.784-4.491,3.782-4.619V187.083z
				 M78.25,184.607c-0.627-2.172-1.54-3.811-2.736-4.914c1.626-0.162,2.753,0.023,3.381,0.558
				C79.58,181.518,79.365,182.97,78.25,184.607z M92.194,188.704c0.058,0.931-0.372,1.418-1.291,1.465h-0.888v-8.785
				c0.081-0.86,0.522-1.319,1.324-1.378h0.854V188.704z"/>
			<rect x="105.649" y="169.479" fill="#231F20" width="4.078" height="20.916"/>
			<rect x="126.426" y="170.177" fill="#231F20" width="3.66" height="3.659"/>
			<rect x="121.197" y="170.177" fill="#231F20" width="3.661" height="3.659"/>
			<rect x="137.964" y="192.225" fill="#231F20" width="3.66" height="3.661"/>
			<rect x="132.735" y="192.225" fill="#231F20" width="3.661" height="3.661"/>
			<rect x="145.965" y="170.177" fill="#231F20" width="3.659" height="3.659"/>
			<rect x="155.728" y="170.177" fill="#231F20" width="3.657" height="3.659"/>
			<rect x="160.607" y="170.177" fill="#231F20" width="3.659" height="3.659"/>
			<rect x="172.25" y="170.177" fill="#231F20" width="3.659" height="3.659"/>
			<path fill="#231F20" d="M171.849,187.083h-4.462h-0.558h-0.976v-10.632h-5.315c-3.465-0.023-5.702,1.237-6.712,3.783
				c-0.813,2.66-0.174,4.943,1.918,6.849h-3.399h-0.61h-1.743v-10.632h-4.079v10.632h-2.317h-0.609h-1.222v-10.632h-4.079v10.632
				h-4.617h-0.575h-1.482v-10.702c-2.3-0.011-4.25,0.332-5.847,1.029c-1.598,0.696-2.914,1.609-3.948,2.736
				c-2.696,2.951-4.103,6.367-4.219,10.248h3.835l0.471-2.248c1.138-3.486,3.015-5.892,5.629-7.216v9.464h5.561h0.575h9.918h0.609
				h8.14h0.61h14.484h0.558h8.539v-3.312v-10.632h-4.077V187.083z M161.827,187.083c-2.288-1.057-3.697-2.637-4.218-4.74
				c0.139-1.615,1.389-2.337,3.745-2.162h0.473V187.083z"/>
			<rect x="167.021" y="170.177" fill="#231F20" width="3.658" height="3.659"/>
			<path fill="#231F20" d="M197.907,188.582c0.126,2.371-0.756,3.539-2.649,3.504h-4.639c-1.661-0.023-2.514-0.896-2.56-2.615
				v-7.791h-4.165v6.135c-0.035,2.905,0.449,4.93,1.462,6.076c1.011,1.143,2.459,1.722,4.341,1.733h5.995
				c1.905,0.116,3.347-0.251,4.324-1.099c0.976-0.848,1.608-2.225,1.899-4.131v-3.312v-17.604h-4.009V188.582z"/>
			<path fill="#231F20" d="M242.823,187.083h-1.48h-0.75h-1.291v-5.595c-0.613-3.09-2.631-4.717-6.048-4.881h-6.414v3.33h6.153
				c1.451,0.383,2.14,1.209,2.057,2.475v4.671h-9.726h-0.68h-2.022v-17.604h-4.078v17.604h-2.005h-0.749h-0.907v-10.632h-1.377
				c-5.369,0.047-8.496,1.449-9.387,4.209c-0.888,2.76-0.668,5.11,0.663,7.051c1.329,1.941,3.427,2.835,6.283,2.684
				c0.244,1.035-0.157,1.598-1.202,1.691h-5.594v3.538h5.105c2.009,0.104,3.533-0.431,4.567-1.604
				c0.66-0.929,0.977-2.138,0.94-3.625h0.907h0.749h8.105h0.68h15.269h0.75h5.558v-3.312v-17.604h-4.077V187.083z M211.065,187.083
				c-1.881,0.222-3.142-0.639-3.782-2.579c-0.477-2.951,0.784-4.491,3.782-4.619V187.083z"/>
			<path fill="#231F20" d="M256.244,188.076c0.01,2.649-0.942,3.98-2.857,3.992v3.556c4.427,0.197,6.687-2.301,6.78-7.495v-11.678
				h-3.923V188.076z"/>
			<rect x="287.636" y="170.177" fill="#231F20" width="3.662" height="3.659"/>
			<rect x="292.866" y="170.177" fill="#231F20" width="3.661" height="3.659"/>
			<rect x="300.377" y="192.225" fill="#231F20" width="3.662" height="3.661"/>
			<path fill="#231F20" d="M301.196,187.083h-2.126h-0.976h-1.377v-10.632h-4.08v10.632h-4.601h-0.419h-0.68v-3.138
				c-0.187-3.613-2.313-5.531-6.38-5.752h-5.871l10.528-8.715H279.6l-9.83,7.896v4.707h10.721c2.066,0.092,2.805,1.759,2.214,5.001
				h-14.12h-0.505h-1.725v-17.604h-4.08v17.604v3.312h5.805h0.505h19.034h0.454h10.022h0.976h6.205v-3.312v-10.632h-4.079V187.083z"
				/>
			<path fill="#231F20" d="M308.047,192.645v1.585h-0.506v1.325h3.592v-1.325h-2.059v-1.011c-0.023-0.314,0.128-0.465,0.455-0.453
				h1.604v-1.377h-2.319C308.349,191.818,308.093,192.236,308.047,192.645z"/>
			<rect x="307.734" y="169.479" fill="#231F20" width="4.077" height="20.916"/>
		</g>
		<g>
			<path fill="#231F20" d="M0.007,231.192v-24.247h17.166v4.369H5.467v5.272h9.436v4.095H5.467v6.074h11.876v4.437H0.007z"/>
			<path fill="#231F20" d="M20.312,237.421v-24.196h4.914v2.799c0.604-1.08,1.303-1.879,2.099-2.397
				c0.796-0.517,1.718-0.776,2.765-0.776c1.979,0,3.569,0.856,4.77,2.568c1.2,1.712,1.8,4.002,1.8,6.867
				c0,2.742-0.658,4.982-1.971,6.723c-1.314,1.741-2.972,2.611-4.974,2.611c-0.956,0-1.774-0.193-2.457-0.58
				c-0.683-0.387-1.275-0.99-1.775-1.809v8.19H20.312z M25.482,223.531c0,1.411,0.236,2.486,0.708,3.225
				c0.471,0.74,1.157,1.109,2.056,1.109c0.956,0,1.672-0.466,2.15-1.398c0.478-0.934,0.717-2.338,0.717-4.215
				c0-1.809-0.237-3.184-0.709-4.121c-0.472-0.939-1.157-1.408-2.055-1.408c-0.831,0-1.518,0.385-2.056,1.152
				c-0.541,0.768-0.811,1.749-0.811,2.943V223.531z"/>
			<path fill="#231F20" d="M40.822,225.357v-8.635h-2.9v-3.498h3.037l0.29-5l4.777-0.307v5.307h3.737v3.498h-3.737v8.072
				c0,1.114,0.157,1.865,0.47,2.252c0.313,0.387,0.878,0.58,1.698,0.58c0.307,0,0.623-0.02,0.947-0.061
				c0.324-0.039,0.657-0.099,0.998-0.179l0.017,3.907c-0.614,0.125-1.211,0.222-1.792,0.291c-0.581,0.068-1.126,0.102-1.638,0.102
				c-2.082,0-3.586-0.498-4.513-1.494C41.285,229.199,40.822,227.588,40.822,225.357z"/>
			<path fill="#231F20" d="M52.715,210.922v-3.977h5.375v3.977H52.715z M52.715,231.192v-17.968h5.375v17.968H52.715z"/>
			<path fill="#231F20" d="M61.946,231.192v-24.247h5.205v13.976l6.706-7.696h4.931l-5.529,6.023l6.263,11.944h-5.528l-4.266-8.345
				l-2.577,2.902v5.442H61.946z"/>
			<path fill="#231F20" d="M92.83,231.192c-0.101-0.397-0.182-0.833-0.238-1.306c-0.057-0.472-0.097-0.997-0.12-1.578
				c-0.614,1.081-1.428,1.908-2.44,2.484c-1.011,0.572-2.177,0.861-3.497,0.861c-1.934,0-3.468-0.496-4.6-1.486
				c-1.132-0.988-1.697-2.325-1.697-4.009c0-2.127,1.021-3.739,3.063-4.839c2.041-1.097,5.065-1.662,9.069-1.696v-0.769
				c0-0.909-0.254-1.598-0.759-2.064c-0.507-0.466-1.255-0.699-2.245-0.699c-1.092,0-1.954,0.213-2.586,0.641
				c-0.63,0.426-1.014,1.055-1.151,1.885l-4.896-0.529c0.42-1.763,1.378-3.094,2.874-3.992s3.506-1.348,6.032-1.348
				c2.798,0,4.809,0.545,6.033,1.637c1.221,1.092,1.833,2.885,1.833,5.376v7.968c0,0.797,0.043,1.477,0.128,2.039
				c0.086,0.563,0.218,1.039,0.401,1.425H92.83z M92.37,222.389c-2.139,0.033-3.773,0.348-4.906,0.938
				c-1.132,0.592-1.697,1.434-1.697,2.525c0,0.74,0.238,1.314,0.716,1.725c0.478,0.408,1.148,0.613,2.013,0.613
				c1.104,0,2.025-0.395,2.765-1.186c0.738-0.791,1.109-1.795,1.109-3.012V222.389z"/>
			<path fill="#231F20" d="M101.277,231.192v-17.968h4.641v3.789c0.41-1.456,1.021-2.531,1.834-3.226s1.856-1.04,3.131-1.04
				c0.114,0,0.335,0.012,0.666,0.033c0.102,0.012,0.181,0.023,0.238,0.034v4.847c-0.022,0-0.052,0-0.085,0
				c-0.456-0.045-0.785-0.069-0.989-0.069c-1.331,0-2.37,0.425-3.115,1.271c-0.745,0.848-1.117,2.022-1.117,3.524v8.804H101.277z"/>
			<path fill="#231F20" d="M125.08,231.192v-24.247h5.768v24.247H125.08z"/>
			<path fill="#231F20" d="M144.432,211.348v19.845h-5.648v-19.845h-5.598v-4.402h16.843v4.402H144.432z"/>
			<path fill="#231F20" d="M161.322,224.385l5.271-1.023c0.341,1.24,0.996,2.191,1.963,2.857c0.966,0.665,2.178,0.998,3.635,0.998
				c1.137,0,2.06-0.258,2.772-0.775c0.712-0.518,1.066-1.192,1.066-2.023c0-1.284-1.525-2.325-4.572-3.121
				c-0.354-0.092-0.62-0.16-0.803-0.205c-0.126-0.034-0.302-0.08-0.528-0.137c-2.787-0.717-4.756-1.627-5.905-2.73
				c-0.569-0.534-1-1.16-1.297-1.877c-0.296-0.717-0.44-1.502-0.44-2.354c0-2.241,0.868-4.063,2.608-5.47
				c1.741-1.404,4.038-2.106,6.893-2.106c2.287,0,4.225,0.519,5.811,1.553c1.586,1.035,2.746,2.542,3.473,4.521l-4.846,1.331
				c-0.387-1.046-0.971-1.837-1.75-2.372c-0.779-0.533-1.748-0.802-2.907-0.802c-1.07,0-1.938,0.248-2.604,0.742
				c-0.664,0.496-0.998,1.13-0.998,1.902c0,1.16,1.409,2.105,4.231,2.832c0.454,0.115,0.818,0.211,1.092,0.291
				c0.103,0.023,0.262,0.063,0.478,0.119c2.65,0.683,4.54,1.479,5.665,2.389c0.738,0.604,1.297,1.326,1.673,2.168
				c0.374,0.842,0.564,1.797,0.564,2.866c0,2.229-0.935,4.069-2.799,5.521c-1.865,1.45-4.278,2.176-7.234,2.176
				c-2.721,0-5-0.641-6.844-1.921C163.147,228.454,161.925,226.671,161.322,224.385z"/>
			<path fill="#231F20" d="M193.06,231.688c-2.707,0-4.895-0.869-6.562-2.61c-1.665-1.741-2.499-4.027-2.499-6.859
				c0-2.845,0.83-5.134,2.491-6.868s3.851-2.602,6.569-2.602c2.73,0,4.924,0.867,6.586,2.602c1.661,1.734,2.491,4.023,2.491,6.868
				c0,2.844-0.83,5.133-2.491,6.868C197.983,230.82,195.79,231.688,193.06,231.688z M193.06,228.053c1.138,0,2.005-0.5,2.602-1.502
				c0.598-1,0.897-2.445,0.897-4.333c0-1.899-0.302-3.354-0.905-4.359c-0.604-1.008-1.468-1.511-2.594-1.511
				c-1.139,0-2,0.494-2.585,1.484s-0.878,2.453-0.878,4.386c0,1.923,0.289,3.376,0.87,4.358
				C191.046,227.561,191.91,228.053,193.06,228.053z"/>
			<path fill="#231F20" d="M205.09,231.192v-24.247h5.374v24.247H205.09z"/>
			<path fill="#231F20" d="M230.291,213.225v17.968h-4.828v-2.866c-0.581,1.115-1.322,1.954-2.228,2.517
				c-0.904,0.563-1.953,0.845-3.147,0.845c-2.002,0-3.478-0.555-4.429-1.664c-0.949-1.109-1.426-2.828-1.426-5.161v-11.638h5.223
				v11.297c0,1.092,0.205,1.916,0.614,2.473c0.41,0.559,1.019,0.837,1.826,0.837c0.968,0,1.737-0.36,2.313-1.083
				c0.572-0.723,0.86-1.698,0.86-2.927v-10.597H230.291z"/>
			<path fill="#231F20" d="M235.17,225.357v-8.635h-2.899v-3.498h3.038l0.288-5l4.777-0.307v5.307h3.737v3.498h-3.737v8.072
				c0,1.114,0.156,1.865,0.471,2.252c0.312,0.387,0.878,0.58,1.697,0.58c0.308,0,0.623-0.02,0.947-0.061
				c0.322-0.039,0.657-0.099,0.997-0.179l0.019,3.907c-0.614,0.125-1.212,0.222-1.792,0.291c-0.581,0.068-1.127,0.102-1.638,0.102
				c-2.083,0-3.587-0.498-4.515-1.494C235.634,229.199,235.17,227.588,235.17,225.357z"/>
			<path fill="#231F20" d="M247.063,210.922v-3.977h5.376v3.977H247.063z M247.063,231.192v-17.968h5.376v17.968H247.063z"/>
			<path fill="#231F20" d="M264.435,231.688c-2.708,0-4.895-0.869-6.562-2.61c-1.666-1.741-2.497-4.027-2.497-6.859
				c0-2.845,0.827-5.134,2.489-6.868c1.661-1.734,3.85-2.602,6.569-2.602c2.729,0,4.925,0.867,6.586,2.602s2.492,4.023,2.492,6.868
				c0,2.844-0.831,5.133-2.492,6.868C269.359,230.82,267.164,231.688,264.435,231.688z M264.435,228.053
				c1.138,0,2.004-0.5,2.603-1.502c0.597-1,0.897-2.445,0.897-4.333c0-1.899-0.303-3.354-0.905-4.359
				c-0.604-1.008-1.469-1.511-2.595-1.511c-1.139,0-2.001,0.494-2.586,1.484c-0.584,0.99-0.876,2.453-0.876,4.386
				c0,1.923,0.288,3.376,0.868,4.358C262.42,227.561,263.284,228.053,264.435,228.053z"/>
			<path fill="#231F20" d="M276.498,231.192v-17.968h4.813v2.867c0.579-1.092,1.325-1.922,2.233-2.491
				c0.909-0.568,1.962-0.853,3.159-0.853c1.979,0,3.444,0.554,4.4,1.663c0.956,1.108,1.433,2.823,1.433,5.144v11.638h-5.204v-11.296
				c0-1.103-0.204-1.937-0.613-2.5c-0.411-0.563-1.024-0.844-1.844-0.844c-0.955,0-1.73,0.37-2.321,1.109
				c-0.59,0.738-0.886,1.717-0.886,2.935v10.596H276.498z"/>
			<path fill="#231F20" d="M294.911,226.159l4.367-0.597c0.228,0.83,0.718,1.47,1.476,1.92c0.756,0.449,1.722,0.673,2.895,0.673
				c0.942,0,1.696-0.179,2.259-0.537c0.563-0.358,0.845-0.833,0.845-1.425c0-0.864-0.997-1.468-2.985-1.809
				c-0.595-0.103-1.053-0.188-1.383-0.256c-2.423-0.467-4.146-1.133-5.17-1.996c-1.023-0.865-1.537-2.048-1.537-3.55
				c0-1.752,0.696-3.167,2.092-4.249c1.394-1.08,3.233-1.621,5.52-1.621c1.933,0,3.545,0.396,4.836,1.187
				c1.292,0.79,2.222,1.953,2.791,3.489l-4.231,0.768c-0.306-0.693-0.751-1.205-1.329-1.535c-0.582-0.33-1.338-0.496-2.27-0.496
				c-0.879,0-1.547,0.154-2.005,0.462c-0.464,0.308-0.692,0.751-0.692,1.33c0,0.843,1.125,1.462,3.379,1.86
				c0.771,0.137,1.383,0.25,1.825,0.342c2.208,0.443,3.773,1.083,4.701,1.918c0.927,0.838,1.391,1.989,1.391,3.457
				c0,1.83-0.772,3.305-2.313,4.418c-1.541,1.115-3.604,1.674-6.188,1.674c-2.146,0-3.958-0.48-5.423-1.442
				C296.292,229.182,295.341,227.854,294.911,226.159z"/>
		</g>
	</g>
</g>
</svg>
