<?xml version="1.0" encoding="utf-8"?>
<!-- Generator: Adobe Illustrator 16.0.0, SVG Export Plug-In . SVG Version: 6.00 Build 0)  -->
<!DOCTYPE svg PUBLIC "-//W3C//DTD SVG 1.1//EN" "http://www.w3.org/Graphics/SVG/1.1/DTD/svg11.dtd">
<svg version="1.1" xmlns="http://www.w3.org/2000/svg" xmlns:xlink="http://www.w3.org/1999/xlink" x="0px" y="0px"
	 width="841.89px" height="595.28px" viewBox="0 0 841.89 595.28" enable-background="new 0 0 841.89 595.28" xml:space="preserve">
<g id="Logo">
	<rect x="40.593" y="157.556" fill="none" width="688.147" height="260.085"/>
	<text transform="matrix(1 0 0 1 264.2417 198.2354)" display="none" font-family="'Calibri'" font-size="60">openNGO</text>
	<g>
		<g>
			<path d="M564.279,145.438c-22.585,0-39.447,14.679-39.447,50.428v51.467h13.614V194.83c0-25.732,9.897-37.13,25.369-37.13
				c13.922,0,24.286,11.053,24.286,37.13V313l13.613,15.666v-133.49C601.715,159.082,585.626,145.438,564.279,145.438z"/>
		</g>
		<path d="M306.34,195.407c0,7.556-0.997,14.511-2.987,20.861c-1.994,6.354-4.963,11.832-8.912,16.435
			c-3.951,4.6-8.897,8.189-14.835,10.765c-5.942,2.576-12.826,3.863-20.658,3.863c-7.623,0-14.27-1.132-19.937-3.401
			c-5.667-2.266-10.39-5.56-14.165-9.888c-3.777-4.327-6.594-9.584-8.449-15.766c-1.854-6.18-2.781-13.186-2.781-21.016
			c0-7.556,0.979-14.509,2.937-20.861c1.957-6.354,4.91-11.833,8.859-16.435c3.95-4.6,8.877-8.175,14.785-10.714
			c5.908-2.541,12.81-3.812,20.71-3.812c7.622,0,14.269,1.135,19.933,3.4c5.667,2.267,10.39,5.562,14.167,9.89
			c3.777,4.328,6.608,9.583,8.5,15.765C305.394,180.673,306.34,187.645,306.34,195.407z M288.722,196.54
			c0-5.013-0.469-9.753-1.403-14.218c-0.937-4.464-2.479-8.38-4.629-11.745c-2.146-3.363-5.057-6.026-8.73-7.983
			c-3.674-1.959-8.249-2.938-13.723-2.938c-5.061,0-9.41,0.893-13.048,2.68c-3.637,1.786-6.637,4.309-8.99,7.571
			c-2.359,3.262-4.108,7.125-5.253,11.592c-1.143,4.466-1.714,9.341-1.714,14.629c0,5.083,0.469,9.856,1.406,14.32
			c0.933,4.467,2.495,8.361,4.677,11.693c2.184,3.333,5.11,5.976,8.784,7.933c3.673,1.957,8.246,2.937,13.722,2.937
			c4.99,0,9.32-0.89,12.996-2.68c3.673-1.783,6.686-4.291,9.043-7.52c2.356-3.23,4.091-7.073,5.199-11.541
			C288.167,206.808,288.722,201.896,288.722,196.54z"/>
		<path d="M407.845,194.995c0,8.103-0.873,15.386-2.63,21.841c-1.749,6.455-4.325,11.937-7.723,16.433
			c-3.4,4.498-7.61,7.971-12.622,10.405c-5.011,2.439-10.745,3.657-17.206,3.657c-2.749,0-5.288-0.273-7.621-0.824
			c-2.334-0.551-4.622-1.404-6.851-2.577c-2.236-1.166-4.453-2.639-6.648-4.429c-2.198-1.784-4.535-3.878-7.004-6.284v46.367
			c0,0.547-0.138,1.028-0.415,1.44c-0.273,0.411-0.72,0.756-1.338,1.031c-0.617,0.27-1.482,0.476-2.576,0.616
			c-1.098,0.139-2.51,0.206-4.225,0.206c-1.648,0-3.02-0.067-4.124-0.206c-1.094-0.141-1.97-0.347-2.625-0.616
			c-0.652-0.275-1.098-0.62-1.338-1.031c-0.239-0.412-0.359-0.894-0.359-1.44V150.075c0-0.618,0.105-1.118,0.308-1.494
			c0.209-0.377,0.617-0.704,1.239-0.978c0.614-0.273,1.404-0.465,2.367-0.565c0.963-0.105,2.131-0.158,3.502-0.158
			c1.445,0,2.629,0.053,3.558,0.158c0.926,0.101,1.697,0.292,2.318,0.565c0.618,0.273,1.045,0.601,1.285,0.978
			c0.24,0.376,0.359,0.876,0.359,1.494v12.465c2.816-2.884,5.532-5.392,8.139-7.521c2.61-2.127,5.24-3.895,7.884-5.307
			c2.645-1.402,5.353-2.472,8.139-3.193c2.783-0.719,5.72-1.08,8.81-1.08c6.73,0,12.468,1.306,17.206,3.916
			c4.734,2.61,8.6,6.18,11.588,10.713c2.985,4.534,5.173,9.806,6.543,15.815C407.16,181.894,407.845,188.263,407.845,194.995z
			 M390.227,196.952c0-4.738-0.363-9.324-1.086-13.753c-0.724-4.433-1.971-8.363-3.734-11.8c-1.757-3.433-4.128-6.18-7.098-8.24
			c-2.97-2.06-6.667-3.092-11.094-3.092c-2.214,0-4.39,0.328-6.528,0.978c-2.143,0.656-4.318,1.686-6.532,3.094
			c-2.213,1.406-4.527,3.261-6.947,5.562c-2.416,2.303-4.974,5.135-7.667,8.5v36.882c4.697,5.704,9.15,10.064,13.371,13.085
			c4.214,3.026,8.637,4.535,13.271,4.535c4.28,0,7.962-1.031,11.041-3.094c3.071-2.06,5.562-4.803,7.461-8.239
			c1.898-3.435,3.299-7.279,4.198-11.542C389.774,205.574,390.227,201.278,390.227,196.952z"/>
		<path d="M509.063,192.42c0,2.676-0.682,4.583-2.022,5.718c-1.345,1.131-2.877,1.698-4.606,1.698h-61.061
			c0,5.153,0.517,9.786,1.547,13.908c1.037,4.122,2.768,7.661,5.18,10.612c2.412,2.953,5.558,5.22,9.416,6.8
			c3.868,1.583,8.595,2.369,14.187,2.369c4.42,0,8.353-0.359,11.802-1.08c3.449-0.722,6.435-1.53,8.955-2.422
			c2.521-0.89,4.588-1.7,6.214-2.421c1.622-0.722,2.851-1.081,3.674-1.081c0.487,0,0.914,0.12,1.292,0.359
			c0.387,0.24,0.671,0.602,0.888,1.083c0.202,0.479,0.356,1.149,0.461,2.007c0.102,0.861,0.157,1.905,0.157,3.143
			c0,0.894-0.037,1.667-0.104,2.318c-0.071,0.655-0.153,1.238-0.255,1.751c-0.104,0.515-0.277,0.979-0.517,1.394
			c-0.243,0.408-0.555,0.807-0.929,1.182c-0.375,0.38-1.491,0.996-3.349,1.855c-1.851,0.863-4.259,1.7-7.21,2.524
			c-2.955,0.826-6.375,1.562-10.251,2.214c-3.88,0.653-8.022,0.979-12.416,0.979c-7.625,0-14.307-1.062-20.037-3.193
			c-5.738-2.125-10.562-5.29-14.473-9.479c-3.917-4.186-6.868-9.441-8.865-15.762c-1.992-6.319-2.984-13.665-2.984-22.05
			c0-7.966,1.029-15.125,3.09-21.479c2.056-6.35,5.029-11.745,8.91-16.174c3.876-4.429,8.569-7.83,14.067-10.202
			c5.486-2.367,11.637-3.553,18.438-3.553c7.28,0,13.479,1.17,18.6,3.502c5.112,2.335,9.321,5.478,12.614,9.427
			c3.299,3.951,5.723,8.59,7.266,13.91c1.547,5.322,2.322,11.008,2.322,17.051V192.42z M491.958,187.369
			c0.206-8.927-1.778-15.931-5.962-21.017c-4.181-5.083-10.386-7.624-18.607-7.624c-4.217,0-7.914,0.791-11.094,2.371
			c-3.176,1.579-5.839,3.672-7.978,6.283c-2.143,2.614-3.798,5.651-4.974,9.118c-1.18,3.47-1.831,7.093-1.97,10.868H491.958z"/>
		<path fill="#009444" d="M323.506,439.729c0,1.5-0.255,2.771-0.757,3.82c-0.502,1.053-1.161,1.91-1.978,2.584
			c-0.81,0.675-1.723,1.165-2.727,1.461c-1.012,0.3-2.015,0.449-3.026,0.449h-6.388c-2.017,0-3.779-0.206-5.288-0.618
			c-1.512-0.408-2.944-1.16-4.3-2.247c-1.356-1.082-2.714-2.565-4.067-4.438c-1.356-1.871-2.796-4.271-4.316-7.191l-44.354-82.697
			c-2.318-4.27-4.655-8.746-7.012-13.428c-2.355-4.68-4.547-9.23-6.577-13.651h-0.225c0.15,5.394,0.263,10.899,0.338,16.517
			c0.072,5.618,0.111,11.199,0.111,16.742v87.754c0,0.524-0.156,1.029-0.474,1.517c-0.316,0.49-0.85,0.861-1.601,1.123
			c-0.751,0.267-1.738,0.487-2.965,0.675c-1.225,0.187-2.786,0.28-4.684,0.28c-1.896,0-3.459-0.094-4.684-0.28
			c-1.227-0.188-2.192-0.408-2.904-0.675c-0.712-0.262-1.225-0.633-1.541-1.123c-0.316-0.487-0.474-0.992-0.474-1.517V310.627
			c0-2.994,0.85-5.129,2.55-6.404c1.702-1.273,3.559-1.91,5.567-1.91h9.51c2.242,0,4.116,0.188,5.624,0.562
			c1.51,0.377,2.861,0.995,4.06,1.854c1.197,0.861,2.358,2.062,3.479,3.596c1.12,1.535,2.296,3.466,3.528,5.786l34.098,63.821
			c2.102,3.895,4.128,7.696,6.083,11.404c1.953,3.708,3.835,7.359,5.646,10.955c1.81,3.596,3.604,7.135,5.377,10.618
			c1.771,3.483,3.527,6.985,5.266,10.506h0.112c-0.151-5.916-0.243-12.079-0.281-18.483c-0.039-6.404-0.056-12.565-0.056-18.483
			v-78.877c0-0.522,0.157-1.012,0.474-1.461s0.849-0.843,1.6-1.18s1.739-0.579,2.966-0.73c1.225-0.149,2.824-0.225,4.798-0.225
			c1.738,0,3.244,0.075,4.51,0.225c1.266,0.151,2.255,0.394,2.966,0.73c0.712,0.337,1.222,0.73,1.536,1.18
			c0.322,0.449,0.479,0.938,0.479,1.461V439.729z"/>
		<path fill="#009444" d="M471.372,322.088c0,1.423-0.075,2.68-0.225,3.765c-0.15,1.086-0.375,1.984-0.674,2.696
			c-0.3,0.714-0.675,1.219-1.124,1.517c-0.449,0.3-0.937,0.449-1.461,0.449c-0.898,0-2.396-0.711-4.494-2.135
			c-2.098-1.421-4.906-2.994-8.427-4.719c-3.521-1.723-7.734-3.296-12.641-4.719c-4.906-1.422-10.73-2.136-17.473-2.136
			c-8.015,0-15.206,1.461-21.573,4.383c-6.367,2.921-11.76,6.966-16.18,12.135c-4.419,5.168-7.81,11.311-10.169,18.427
			c-2.359,7.118-3.539,14.832-3.539,23.146c0,9.288,1.292,17.528,3.877,24.72c2.584,7.19,6.16,13.258,10.73,18.202
			c4.568,4.943,10.019,8.691,16.348,11.236c6.33,2.547,13.277,3.82,20.844,3.82c4.494,0,9.045-0.544,13.651-1.63
			c4.606-1.084,8.896-2.713,12.865-4.888v-42.359h-33.708c-1.273,0-2.229-0.635-2.865-1.91c-0.637-1.273-0.955-3.259-0.955-5.955
			c0-1.422,0.074-2.641,0.225-3.652c0.149-1.011,0.394-1.835,0.73-2.472c0.337-0.635,0.73-1.104,1.18-1.404
			c0.449-0.298,1.012-0.449,1.686-0.449h46.18c0.824,0,1.648,0.151,2.473,0.449c0.823,0.3,1.572,0.749,2.247,1.348
			c0.674,0.602,1.198,1.424,1.573,2.473c0.374,1.051,0.562,2.247,0.562,3.596v55.394c0,1.949-0.337,3.635-1.012,5.056
			c-0.674,1.424-2.097,2.681-4.27,3.765c-2.172,1.086-4.981,2.266-8.427,3.539c-3.446,1.277-7.004,2.359-10.675,3.259
			c-3.67,0.898-7.378,1.572-11.123,2.022c-3.745,0.449-7.453,0.674-11.124,0.674c-11.236,0-21.273-1.741-30.112-5.225
			s-16.312-8.444-22.416-14.888c-6.105-6.442-10.769-14.157-13.989-23.146c-3.221-8.988-4.831-19.026-4.831-30.112
			c0-11.534,1.741-21.983,5.225-31.349c3.483-9.363,8.39-17.341,14.719-23.933c6.33-6.59,13.933-11.703,22.81-15.338
			c8.877-3.633,18.708-5.449,29.494-5.449c5.544,0,10.75,0.489,15.619,1.461c4.868,0.974,9.194,2.118,12.978,3.427
			c3.782,1.311,6.966,2.736,9.55,4.27c2.585,1.536,4.363,2.792,5.338,3.765c0.974,0.974,1.647,2.097,2.022,3.37
			C471.185,317.857,471.372,319.691,471.372,322.088z"/>
		<path fill="#009444" d="M628.274,373.324c0,11.761-1.386,22.36-4.157,31.798c-2.771,9.438-6.906,17.473-12.412,24.102
			c-5.506,6.63-12.42,11.725-20.734,15.281c-8.314,3.558-18.015,5.337-29.102,5.337c-10.937,0-20.39-1.629-28.367-4.888
			c-7.978-3.258-14.569-7.994-19.775-14.214c-5.206-6.217-9.086-13.933-11.633-23.146c-2.547-9.214-3.82-19.813-3.82-31.799
			c0-11.46,1.386-21.87,4.157-31.235c2.771-9.364,6.929-17.321,12.472-23.877c5.543-6.555,12.473-11.61,20.787-15.169
			c8.314-3.556,18.015-5.337,29.102-5.337c10.712,0,20.037,1.612,27.978,4.831c7.94,3.222,14.555,7.922,19.835,14.102
			c5.281,6.18,9.214,13.82,11.798,22.922C626.986,351.133,628.274,361.565,628.274,373.324z M607.825,374.673
			c0-8.24-0.727-15.899-2.188-22.978c-1.461-7.079-3.888-13.22-7.296-18.428c-3.401-5.206-7.948-9.27-13.634-12.19
			c-5.685-2.922-12.719-4.383-21.094-4.383c-8.382,0-15.416,1.573-21.101,4.72c-5.686,3.146-10.308,7.343-13.858,12.584
			c-3.551,5.244-6.098,11.367-7.633,18.371c-1.535,7.006-2.3,14.365-2.3,22.079c0,8.539,0.712,16.404,2.135,23.596
			c1.424,7.19,3.813,13.39,7.184,18.596c3.363,5.208,7.873,9.253,13.521,12.135c5.648,2.884,12.734,4.326,21.267,4.326
			c8.449,0,15.559-1.573,21.318-4.72c5.761-3.146,10.397-7.396,13.918-12.753c3.513-5.354,6.022-11.554,7.513-18.596
			C607.075,389.993,607.825,382.538,607.825,374.673z"/>
		<path fill="#009444" d="M548.146,413.671h30.255l-8.382-41.918c4.966-2.472,8.382-7.61,8.382-13.543
			c0-8.352-6.771-15.127-15.124-15.127c-8.352,0-15.131,6.775-15.131,15.127c0,5.933,3.416,11.067,8.39,13.543L548.146,413.671z"/>
	</g>
</g>
<g id="App_Icon" display="none">
	<path display="inline" fill="#E6E7E8" d="M374.13,147.64h93.63c29.713,0,44.568,0,60.559,5.057
		c17.461,6.355,31.215,20.109,37.57,37.569c5.057,15.992,5.057,30.848,5.057,60.56v93.63c0,29.713,0,44.568-5.057,60.559
		c-6.355,17.461-20.109,31.215-37.57,37.57c-15.99,5.057-30.846,5.057-60.559,5.057h-93.63c-29.712,0-44.567,0-60.56-5.057
		c-17.46-6.355-31.214-20.109-37.569-37.57c-5.057-15.99-5.057-30.846-5.057-60.559v-93.63c0-29.712,0-44.567,5.057-60.56
		c6.355-17.46,20.109-31.214,37.569-37.569C329.562,147.64,344.418,147.64,374.13,147.64L374.13,147.64"/>
	<g display="inline">
		<g>
			<path d="M505.892,207.438c-13.385,0-23.379,8.7-23.379,29.886v30.502h8.069V236.71c0-15.25,5.865-22.005,15.034-22.005
				c8.251,0,14.394,6.55,14.394,22.005v70.033l8.067,9.284v-79.112C528.077,215.524,518.542,207.438,505.892,207.438z"/>
		</g>
		<path d="M353.024,237.052c0,4.478-0.591,8.6-1.77,12.363c-1.183,3.766-2.941,7.012-5.282,9.74
			c-2.342,2.727-5.272,4.854-8.792,6.38c-3.521,1.526-7.602,2.289-12.243,2.289c-4.518,0-8.456-0.67-11.814-2.016
			c-3.359-1.343-6.158-3.295-8.396-5.859c-2.238-2.564-3.907-5.68-5.007-9.344c-1.099-3.662-1.648-7.814-1.648-12.455
			c0-4.478,0.58-8.599,1.74-12.364c1.16-3.766,2.91-7.013,5.25-9.74c2.342-2.726,5.262-4.845,8.763-6.35
			c3.502-1.506,7.592-2.259,12.273-2.259c4.518,0,8.456,0.672,11.813,2.015c3.358,1.343,6.157,3.297,8.396,5.861
			c2.239,2.565,3.917,5.679,5.038,9.343C352.464,228.32,353.024,232.452,353.024,237.052z M342.584,237.724
			c0-2.971-0.278-5.78-0.832-8.426c-0.555-2.646-1.47-4.966-2.743-6.96c-1.272-1.993-2.997-3.572-5.174-4.731
			c-2.178-1.161-4.89-1.741-8.133-1.741c-2.999,0-5.577,0.529-7.733,1.588c-2.155,1.059-3.933,2.554-5.328,4.487
			c-1.397,1.933-2.435,4.223-3.112,6.87c-0.678,2.646-1.016,5.536-1.016,8.67c0,3.012,0.277,5.841,0.833,8.487
			c0.553,2.647,1.479,4.955,2.771,6.93c1.294,1.975,3.028,3.541,5.206,4.701c2.177,1.16,4.887,1.74,8.132,1.74
			c2.958,0,5.523-0.527,7.702-1.588c2.177-1.057,3.962-2.543,5.359-4.457c1.396-1.915,2.425-4.192,3.081-6.84
			C342.255,243.809,342.584,240.897,342.584,237.724z"/>
		<path d="M413.182,236.808c0,4.802-0.518,9.118-1.56,12.944c-1.035,3.826-2.562,7.074-4.576,9.738
			c-2.016,2.666-4.51,4.725-7.48,6.167c-2.97,1.445-6.368,2.167-10.197,2.167c-1.629,0-3.134-0.161-4.517-0.488
			c-1.383-0.326-2.739-0.832-4.06-1.527c-1.325-0.69-2.64-1.563-3.94-2.624c-1.303-1.058-2.688-2.299-4.15-3.725v27.479
			c0,0.324-0.082,0.609-0.246,0.854c-0.162,0.243-0.427,0.448-0.793,0.611c-0.366,0.159-0.879,0.281-1.526,0.365
			c-0.651,0.082-1.488,0.122-2.504,0.122c-0.977,0-1.789-0.04-2.444-0.122c-0.648-0.084-1.167-0.206-1.556-0.365
			c-0.387-0.163-0.65-0.368-0.793-0.611c-0.142-0.244-0.213-0.529-0.213-0.854v-76.753c0-0.366,0.062-0.663,0.183-0.886
			c0.124-0.223,0.365-0.417,0.734-0.579c0.364-0.162,0.832-0.275,1.403-0.335c0.57-0.062,1.263-0.094,2.075-0.094
			c0.856,0,1.558,0.031,2.108,0.094c0.548,0.06,1.006,0.173,1.373,0.335s0.62,0.356,0.762,0.579c0.143,0.223,0.214,0.52,0.214,0.886
			v7.387c1.669-1.709,3.278-3.195,4.823-4.458c1.547-1.261,3.105-2.308,4.672-3.145c1.567-0.831,3.172-1.465,4.823-1.893
			c1.649-0.426,3.39-0.64,5.221-0.64c3.989,0,7.39,0.774,10.197,2.321c2.807,1.547,5.097,3.663,6.868,6.349
			c1.769,2.687,3.065,5.811,3.878,9.373C412.775,229.043,413.182,232.818,413.182,236.808z M402.74,237.968
			c0-2.808-0.216-5.526-0.644-8.15c-0.429-2.627-1.168-4.957-2.214-6.993c-1.04-2.034-2.445-3.663-4.206-4.884
			c-1.76-1.22-3.95-1.832-6.575-1.832c-1.312,0-2.601,0.194-3.868,0.579c-1.27,0.389-2.56,0.999-3.871,1.833
			c-1.312,0.833-2.684,1.933-4.117,3.297c-1.433,1.365-2.948,3.043-4.544,5.037v21.858c2.783,3.381,5.423,5.965,7.924,7.755
			c2.498,1.794,5.119,2.688,7.865,2.688c2.537,0,4.719-0.611,6.543-1.833c1.82-1.221,3.297-2.847,4.422-4.883
			c1.125-2.036,1.955-4.314,2.488-6.84C402.472,243.078,402.74,240.532,402.74,237.968z"/>
		<path d="M473.168,235.282c0,1.586-0.404,2.716-1.198,3.389c-0.797,0.67-1.705,1.006-2.73,1.006h-36.188
			c0,3.054,0.307,5.8,0.917,8.243c0.615,2.443,1.641,4.541,3.07,6.29c1.429,1.75,3.293,3.094,5.58,4.029
			c2.292,0.938,5.094,1.404,8.407,1.404c2.619,0,4.95-0.213,6.994-0.64c2.044-0.428,3.813-0.907,5.308-1.436
			c1.494-0.527,2.719-1.008,3.683-1.435c0.961-0.428,1.689-0.641,2.177-0.641c0.289,0,0.542,0.071,0.766,0.213
			c0.229,0.143,0.398,0.356,0.526,0.642c0.12,0.284,0.212,0.682,0.273,1.189c0.06,0.511,0.093,1.129,0.093,1.862
			c0,0.529-0.021,0.988-0.062,1.374c-0.042,0.389-0.091,0.734-0.151,1.038c-0.062,0.305-0.164,0.58-0.306,0.825
			c-0.145,0.242-0.329,0.479-0.551,0.7c-0.222,0.226-0.884,0.591-1.984,1.101c-1.097,0.511-2.524,1.007-4.273,1.496
			c-1.751,0.489-3.777,0.925-6.075,1.312c-2.299,0.388-4.754,0.58-7.357,0.58c-4.52,0-8.479-0.629-11.875-1.892
			c-3.401-1.26-6.26-3.136-8.577-5.618c-2.321-2.48-4.07-5.596-5.254-9.341c-1.181-3.745-1.77-8.099-1.77-13.068
			c0-4.721,0.61-8.964,1.832-12.729c1.218-3.763,2.98-6.961,5.28-9.585c2.297-2.625,5.078-4.641,8.337-6.046
			c3.251-1.403,6.896-2.105,10.928-2.105c4.314,0,7.988,0.693,11.022,2.075c3.03,1.384,5.524,3.247,7.476,5.587
			c1.955,2.342,3.392,5.091,4.307,8.244c0.916,3.154,1.376,6.524,1.376,10.105V235.282z M463.03,232.289
			c0.122-5.291-1.054-9.441-3.533-12.456c-2.478-3.012-6.155-4.518-11.027-4.518c-2.499,0-4.69,0.469-6.575,1.405
			c-1.882,0.936-3.46,2.176-4.728,3.724c-1.27,1.549-2.251,3.349-2.947,5.404c-0.699,2.056-1.085,4.204-1.168,6.441H463.03z"/>
		<path fill="#009444" d="M363.198,381.849c0,0.889-0.151,1.643-0.448,2.265c-0.298,0.623-0.688,1.132-1.172,1.531
			c-0.48,0.399-1.021,0.69-1.616,0.865c-0.6,0.178-1.194,0.267-1.794,0.267h-3.785c-1.195,0-2.24-0.122-3.134-0.366
			c-0.896-0.242-1.745-0.688-2.549-1.332c-0.804-0.641-1.608-1.521-2.41-2.63c-0.804-1.108-1.657-2.53-2.559-4.262l-26.286-49.011
			c-1.374-2.53-2.759-5.183-4.155-7.957c-1.396-2.773-2.695-5.471-3.898-8.091h-0.133c0.089,3.196,0.155,6.46,0.2,9.788
			c0.043,3.33,0.066,6.638,0.066,9.923v52.007c0,0.311-0.093,0.61-0.281,0.898c-0.188,0.291-0.503,0.511-0.948,0.666
			c-0.445,0.158-1.03,0.289-1.757,0.399s-1.651,0.166-2.776,0.166c-1.124,0-2.05-0.056-2.775-0.166
			c-0.727-0.11-1.3-0.241-1.722-0.399c-0.422-0.155-0.726-0.375-0.913-0.666c-0.188-0.288-0.28-0.588-0.28-0.898v-79.509
			c0-1.774,0.503-3.04,1.511-3.796c1.009-0.755,2.109-1.132,3.3-1.132h5.636c1.329,0,2.439,0.111,3.333,0.333
			c0.895,0.224,1.696,0.59,2.406,1.099c0.709,0.511,1.397,1.222,2.062,2.131c0.664,0.91,1.361,2.055,2.092,3.43l20.207,37.823
			c1.246,2.308,2.446,4.562,3.605,6.759c1.157,2.197,2.272,4.361,3.346,6.492c1.072,2.131,2.136,4.229,3.187,6.293
			c1.05,2.064,2.091,4.14,3.121,6.227h0.066c-0.09-3.507-0.145-7.159-0.167-10.954c-0.023-3.796-0.033-7.447-0.033-10.954v-46.746
			c0-0.31,0.094-0.6,0.281-0.866s0.503-0.499,0.948-0.699c0.444-0.199,1.03-0.343,1.757-0.433c0.727-0.089,1.674-0.133,2.844-0.133
			c1.03,0,1.923,0.044,2.673,0.133c0.75,0.09,1.336,0.233,1.758,0.433c0.422,0.2,0.724,0.433,0.91,0.699
			c0.191,0.267,0.284,0.557,0.284,0.866V381.849z"/>
		<path fill="#009444" d="M450.83,312.129c0,0.844-0.044,1.588-0.133,2.231s-0.223,1.176-0.399,1.598
			c-0.178,0.423-0.399,0.723-0.666,0.898c-0.267,0.178-0.555,0.267-0.866,0.267c-0.532,0-1.42-0.421-2.663-1.266
			c-1.243-0.842-2.908-1.774-4.994-2.796c-2.087-1.021-4.584-1.953-7.491-2.797c-2.908-0.843-6.359-1.266-10.355-1.266
			c-4.75,0-9.012,0.866-12.785,2.598c-3.773,1.73-6.97,4.128-9.589,7.191c-2.619,3.062-4.628,6.703-6.026,10.921
			c-1.398,4.219-2.098,8.79-2.098,13.718c0,5.504,0.766,10.388,2.298,14.649c1.531,4.262,3.65,7.857,6.359,10.788
			c2.707,2.93,5.938,5.15,9.688,6.659s7.868,2.264,12.353,2.264c2.664,0,5.36-0.322,8.091-0.966
			c2.729-0.643,5.271-1.608,7.624-2.896V348.82H419.2c-0.755,0-1.32-0.376-1.698-1.132c-0.377-0.755-0.565-1.932-0.565-3.529
			c0-0.843,0.044-1.565,0.133-2.165c0.089-0.599,0.233-1.087,0.433-1.465c0.2-0.376,0.433-0.654,0.699-0.832
			c0.267-0.177,0.6-0.266,0.999-0.266h27.368c0.488,0,0.977,0.089,1.466,0.266c0.487,0.178,0.932,0.444,1.331,0.799
			c0.399,0.356,0.71,0.844,0.933,1.466c0.222,0.622,0.333,1.331,0.333,2.131v32.828c0,1.155-0.2,2.154-0.6,2.997
			c-0.399,0.844-1.243,1.588-2.53,2.23c-1.287,0.644-2.952,1.343-4.994,2.098c-2.043,0.757-4.151,1.398-6.326,1.932
			c-2.176,0.532-4.373,0.932-6.593,1.198c-2.219,0.267-4.417,0.399-6.592,0.399c-6.659,0-12.608-1.032-17.847-3.097
			s-9.667-5.004-13.284-8.823c-3.619-3.817-6.382-8.39-8.291-13.718c-1.908-5.326-2.863-11.275-2.863-17.846
			c0-6.836,1.032-13.028,3.097-18.578s4.972-10.277,8.723-14.184c3.752-3.905,8.258-6.937,13.519-9.09s11.087-3.229,17.479-3.229
			c3.285,0,6.371,0.29,9.257,0.865c2.885,0.577,5.448,1.256,7.69,2.031c2.242,0.776,4.129,1.621,5.66,2.53
			c1.531,0.91,2.586,1.654,3.163,2.231c0.577,0.576,0.977,1.242,1.198,1.997C450.719,309.622,450.83,310.709,450.83,312.129z"/>
		<path fill="#009444" d="M543.817,342.494c0,6.97-0.821,13.252-2.463,18.845c-1.643,5.594-4.094,10.355-7.356,14.284
			s-7.36,6.948-12.288,9.056c-4.928,2.108-10.677,3.163-17.247,3.163c-6.481,0-12.084-0.965-16.812-2.896
			c-4.728-1.931-8.635-4.738-11.72-8.424c-3.086-3.685-5.385-8.257-6.895-13.717c-1.509-5.461-2.264-11.743-2.264-18.846
			c0-6.792,0.821-12.961,2.464-18.512c1.643-5.55,4.106-10.266,7.391-14.15c3.285-3.885,7.393-6.881,12.319-8.99
			c4.928-2.107,10.677-3.162,17.247-3.162c6.349,0,11.875,0.955,16.581,2.862c4.706,1.909,8.626,4.695,11.755,8.357
			c3.13,3.662,5.461,8.19,6.992,13.585C543.055,329.343,543.817,335.525,543.817,342.494z M531.698,343.293
			c0-4.883-0.431-9.423-1.296-13.617c-0.866-4.195-2.304-7.835-4.324-10.921c-2.016-3.086-4.71-5.494-8.08-7.225
			c-3.368-1.731-7.537-2.598-12.501-2.598c-4.968,0-9.136,0.933-12.505,2.797s-6.109,4.352-8.213,7.458
			c-2.104,3.107-3.614,6.736-4.523,10.888c-0.91,4.151-1.363,8.514-1.363,13.085c0,5.061,0.422,9.722,1.265,13.984
			c0.845,4.261,2.261,7.935,4.258,11.021c1.993,3.086,4.666,5.483,8.013,7.191c3.348,1.709,7.547,2.563,12.604,2.563
			c5.008,0,9.221-0.932,12.635-2.797c3.414-1.864,6.162-4.384,8.248-7.558c2.082-3.173,3.569-6.848,4.452-11.021
			C531.254,352.373,531.698,347.954,531.698,343.293z"/>
		<path fill="#009444" d="M496.33,366.405h17.931l-4.968-24.843c2.943-1.465,4.968-4.51,4.968-8.026
			c0-4.949-4.013-8.965-8.963-8.965s-8.968,4.016-8.968,8.965c0,3.517,2.024,6.56,4.973,8.026L496.33,366.405z"/>
	</g>
</g>
</svg>
